<svg preserveAspectRatio="none" width="100%" height="100%" overflow="visible" style="display: block;" viewBox="0 0 24 24" fill="none" xmlns="http://www.w3.org/2000/svg">
<g id="arrow-left">
<path id="Vector" d="M14.8239 3.90379C14.9187 3.80913 15.0818 3.80908 15.1765 3.90379C15.2711 3.99852 15.2711 4.16162 15.1765 4.25633L8.65598 10.7768C7.98129 11.452 7.98131 12.548 8.65598 13.2231L15.1765 19.7436C15.2695 19.8367 15.2701 19.9949 15.1804 20.0903C15.1149 20.1483 15.0477 20.1704 14.9997 20.1704C14.9353 20.1703 14.8752 20.1473 14.8239 20.0962L8.30344 13.5766C7.4387 12.7119 7.4387 11.2881 8.30344 10.4233L14.8239 3.90379Z" fill="var(--fill-0, #1B1B1B)" stroke="var(--stroke-0, #1B1B1B)"/>
<path id="Vector_2" opacity="0" d="M23.5 0.5V23.5H0.5V0.5H23.5Z" stroke="var(--stroke-0, #1B1B1B)"/>
</g>
</svg>
