<svg preserveAspectRatio="none" width="100%" height="100%" overflow="visible" style="display: block;" viewBox="0 0 24 24" fill="none" xmlns="http://www.w3.org/2000/svg">
<g id="info-circle">
<path id="Vector" d="M12 1.75C17.6539 1.75 22.25 6.34614 22.25 12C22.25 17.6539 17.6539 22.25 12 22.25C6.34614 22.25 1.75 17.6539 1.75 12C1.75 6.34614 6.34614 1.75 12 1.75ZM12 2.25C6.62386 2.25 2.25 6.62386 2.25 12C2.25 17.3761 6.62386 21.75 12 21.75C17.3761 21.75 21.75 17.3761 21.75 12C21.75 6.62386 17.3761 2.25 12 2.25Z" fill="var(--fill-0, #E93334)" stroke="var(--stroke-0, #E93334)"/>
<path id="Vector_2" d="M12 7.75C12.1339 7.75 12.25 7.86614 12.25 8V13C12.25 13.1339 12.1339 13.25 12 13.25C11.8661 13.25 11.75 13.1339 11.75 13V8C11.75 7.86614 11.8661 7.75 12 7.75Z" fill="var(--fill-0, #E93334)" stroke="var(--stroke-0, #E93334)"/>
<path id="Vector_3" d="M12 17C11.87 17 11.74 16.97 11.62 16.92C11.5 16.87 11.39 16.8 11.29 16.71C11.2 16.61 11.13 16.51 11.08 16.38C11.03 16.26 11 16.13 11 16C11 15.87 11.03 15.74 11.08 15.62C11.13 15.5 11.2 15.39 11.29 15.29C11.39 15.2 11.5 15.13 11.62 15.08C11.86 14.98 12.14 14.98 12.38 15.08C12.5 15.13 12.61 15.2 12.71 15.29C12.8 15.39 12.87 15.5 12.92 15.62C12.97 15.74 13 15.87 13 16C13 16.13 12.97 16.26 12.92 16.38C12.87 16.51 12.8 16.61 12.71 16.71C12.61 16.8 12.5 16.87 12.38 16.92C12.26 16.97 12.13 17 12 17Z" fill="var(--fill-0, #E93334)"/>
<g id="Vector_4" opacity="0">
</g>
</g>
</svg>
